<?xml version="1.0" encoding="UTF-8"?><!DOCTYPE svg PUBLIC "-//W3C//DTD SVG 1.1//EN" "http://www.w3.org/Graphics/SVG/1.1/DTD/svg11.dtd"><svg xmlns="http://www.w3.org/2000/svg"><symbol id="icon-arrow-bottom" viewBox="0 0 28 17"><path d="M25.69.5l1.81 1.796L14 16.5.5 2.296 2.31.5 14 12.8"/></symbol><symbol id="icon-arrow-left" viewBox="0 0 10 17"><path d="M10 1.1L8.9 0 0 8.5 8.9 17l1.1-1.1-7.7-7.4z"/></symbol><symbol id="icon-arrow-right" viewBox="0 0 10 17"><path d="M0 1.1L1.1 0 10 8.5 1.1 17 0 15.9l7.7-7.4z"/></symbol><symbol id="icon-burger" viewBox="0 0 47 25"><title>menu_icon</title><path d="M0 0h47v5H0V0zm7 10h40v5H7v-5zM0 20h47v5H0v-5z" fill="#000" fill-rule="evenodd"/></symbol><symbol id="icon-button-next-light" viewBox="0 0 45 45"><title>Back Arrow</title><g transform="matrix(-1 0 0 1 45 0)" fill="none" fill-rule="evenodd"><circle fill="#FFF" cx="22.5" cy="22.5" r="22.5"/><path d="M28 15.14L26.877 14 18 22.5l8.877 8.5L28 29.86l-7.687-7.36z" fill-rule="nonzero" fill="#000"/></g></symbol><symbol id="icon-button-next" viewBox="0 0 36 36"><title>Next Arrow</title><g fill="none" fill-rule="evenodd"><circle fill="#000" cx="18" cy="18" r="18"/><path d="M14.4 12.111l.898-.911L22.4 18l-7.102 6.8-.898-.912L20.55 18z" fill-rule="nonzero" fill="#FFF"/></g></symbol><symbol id="icon-button-previous-light" viewBox="0 0 45 45"><title>Back Arrow</title><g transform="matrix(-1 0 0 1 45 0)" fill="none" fill-rule="evenodd"><circle fill="#FFF" cx="22.5" cy="22.5" r="22.5"/><path d="M18 15.14L19.123 14 28 22.5 19.123 31 18 29.86l7.687-7.36z" fill-rule="nonzero" fill="#000"/></g></symbol><symbol id="icon-button-previous" viewBox="0 0 36 36"><title>Previous Arrow</title><g transform="matrix(-1 0 0 1 36 0)" fill="none" fill-rule="evenodd"><circle fill="#000" cx="18" cy="18" r="18"/><path d="M14.4 12.111l.898-.911L22.4 18l-7.102 6.8-.898-.912L20.55 18z" fill-rule="nonzero" fill="#FFF"/></g></symbol><symbol id="icon-check" viewBox="0 0 208 208"><path d="M73.7 152.4c-2.4 2.4-5.8 4.4-8.8 4.4s-6.4-2.1-8.9-4.5l-56-56 17.8-17.8L65 125.7 189.8 0l17.5 18.1L73.7 152.4z"/></symbol><symbol id="icon-close" viewBox="0 0 37 37"><path d="M18.5 14.964L3.536 0 0 3.536 14.964 18.5.115 33.35l3.536 3.535L18.5 22.035 33.234 36.77l3.536-3.536L22.036 18.5 36.885 3.65 33.349.116 18.5 14.965z" fill-rule="nonzero"/></symbol><symbol id="icon-facebook" viewBox="0 0 8 17"><title>Facebook</title><path d="M1.73 3.292v2.34H0v2.863h1.73V17H5.28V8.495h2.384s.223-1.372.331-2.873H5.295V3.665c0-.292.387-.685.77-.685H8V0H5.369c-3.728 0-3.64 2.865-3.64 3.292z" fill-rule="nonzero"/></symbol><symbol id="icon-google-plus" viewBox="0 0 21 16"><title>001-google-plus</title><g fill-rule="nonzero"><path d="M15.98 6.832H8.523v2.389h4.55c-.68 2.076-2.698 3.582-5.083 3.582-2.942 0-5.327-2.291-5.327-5.118 0-2.827 2.385-5.118 5.327-5.118 1.481 0 2.821.581 3.787 1.52l1.804-1.885A8.133 8.133 0 0 0 7.99.008C3.577.008 0 3.445 0 7.685s3.577 7.678 7.99 7.678c3.865 0 7.25-2.638 7.99-6.142V6.832zM20.822 6.828h-1.525V5.362h-1.308v1.466h-1.525v1.256h1.525V9.55h1.308V8.084h1.525z"/></g></symbol><symbol id="icon-instagram" viewBox="0 0 18 18"><title>instagram-logo</title><g fill-rule="nonzero"><path d="M12.774 0H4.869C2.184 0 0 2.132 0 4.751v7.715c0 2.62 2.184 4.751 4.869 4.751h7.905c2.684 0 4.869-2.131 4.869-4.751V4.751c0-2.62-2.185-4.751-4.87-4.751zm3.303 12.466c0 1.778-1.482 3.224-3.303 3.224H4.869c-1.822 0-3.304-1.446-3.304-3.224V4.751c0-1.777 1.482-3.223 3.304-3.223h7.905c1.821 0 3.303 1.446 3.303 3.223v7.715z"/><path d="M9.222 4.696c-2.432 0-4.41 1.93-4.41 4.304 0 2.374 1.978 4.304 4.41 4.304 2.432 0 4.41-1.93 4.41-4.304 0-2.373-1.978-4.304-4.41-4.304zm0 7.043C7.675 11.74 6.415 10.51 6.415 9c0-1.51 1.26-2.74 2.807-2.74 1.548 0 2.807 1.23 2.807 2.74 0 1.51-1.26 2.74-2.807 2.74zM13.633 3.13a.815.815 0 0 0-.567.23.777.777 0 0 0-.235.553.78.78 0 0 0 .235.554.818.818 0 0 0 1.134 0 .779.779 0 0 0 .235-.554.776.776 0 0 0-.235-.553.816.816 0 0 0-.567-.23z"/></g></symbol><symbol id="icon-linkedin" viewBox="0 0 17 17"><title>002-linkedin</title><g fill-rule="nonzero"><path d="M3.892 5.25H.535a.266.266 0 0 0-.27.263v10.523c0 .145.121.263.27.263h3.357c.149 0 .27-.118.27-.263V5.513a.266.266 0 0 0-.27-.264zM2.215.018C.994.018 0 .987 0 2.178c0 1.19.994 2.16 2.215 2.16 1.22 0 2.213-.97 2.213-2.16 0-1.191-.993-2.16-2.213-2.16zM12.43 4.988c-1.348 0-2.345.565-2.95 1.208v-.683a.266.266 0 0 0-.27-.264H5.997a.266.266 0 0 0-.27.264v10.523c0 .145.121.263.27.263h3.35c.149 0 .27-.118.27-.263v-5.207c0-1.754.488-2.438 1.74-2.438 1.366 0 1.474 1.096 1.474 2.529v5.116c0 .145.12.263.27.263h3.35c.15 0 .27-.118.27-.263v-5.772c0-2.61-.51-5.276-4.29-5.276z"/></g></symbol><symbol id="icon-logo" viewBox="0 0 130 74"><title>d3 logo</title><path d="M34.687 50.55c11.307.925 12.578 8.1 12.578 11.227 0 8.04-7.71 12.03-14.492 12.03-4.135 0-7.397-1.662-9.034-4.184h.174c.523 0 1.006.236 1.361.618 1.26 1.355 3.748 2.644 7.384 2.644 7.076 0 9.39-4.921 9.39-11.344 0-10.588-8.465-10.588-11.648-10.588h-4.926v-.924h4.868c6.26 0 10.377-1.678 10.377-8.504 0-4.34-1.568-8.102-6.493-8.102-3.338 0-5.77 1.768-6.611 3.008-.299.44-.813.681-1.346.681h-.138c1.402-3.136 5.069-4.61 8.673-4.61 6.203 0 10.788 3.7 10.788 8.964 0 7.868-8.471 8.739-10.905 8.967v.116zM5.62 37.78c0 12.382 5.791 12.382 11.76 12.382h4.037v.932H13.93C2.577 51.094 0 43.385 0 38.13c0-.996 0-12.851 13.287-12.97h4.094V4.036A4.04 4.04 0 0 1 21.425 0v29.224a4.04 4.04 0 0 1-4.044 4.036v-7.164c-4.8 0-11.761.058-11.761 11.684zM31.99 2.134c3.345 0 4.897 2.392 4.953 4.761l.001.124c0 1.34-.487 2.601-1.347 3.48-.888.904-2.135 1.383-3.606 1.383h-3.378V2.134h3.378zm0 8.63c1.125 0 2.079-.364 2.754-1.053.688-.702 1.072-1.724 1.05-2.806-.038-1.825-1.229-3.666-3.803-3.666h-2.228v7.525h2.228zm14.145-8.63V8.14c0 2.543-1.909 3.875-3.794 3.875-.989 0-1.913-.345-2.6-.972-.775-.707-1.185-1.71-1.185-2.903V2.134h1.133V8.14c0 .868.287 1.593.829 2.095.48.447 1.127.693 1.823.693 1.28 0 2.66-.872 2.66-2.788V2.134h1.134zm8.506 4.74a2.576 2.576 0 0 1 1.484 2.359c0 1.684-1.312 2.65-3.602 2.65h-4.045v-9.75h4.045c1.514 0 3.283.723 3.283 2.758 0 .851-.435 1.575-1.165 1.983zm-2.118 3.89c1.637 0 2.469-.52 2.469-1.545-.016-1.63-1.823-1.758-2.376-1.758h-2.99v3.303h2.897zm0-7.591h-2.897v3.182h2.99c.95 0 2.08-.254 2.08-1.464 0-1.268-1.17-1.718-2.173-1.718zm9.854-1.04l4.381 9.749h-1.242l-1.027-2.29h-5.3l-1.015 2.29h-1.243l4.381-9.748h1.065zM59.657 8.5h4.361l-2.18-4.931-2.181 4.93zm9.846 3.382H68.37V2.134h1.134v9.748zM86.1 6.954c.002.042.002.082.002.123 0 1.34-.488 2.602-1.347 3.48-.889.905-2.135 1.384-3.607 1.384H77.77V2.192h3.377c3.345 0 4.897 2.393 4.952 4.762zm-4.952 3.869c1.125 0 2.078-.365 2.754-1.053.688-.702 1.07-1.724 1.049-2.807-.037-1.824-1.228-3.665-3.803-3.665H78.92v7.525h2.228zm14.41 0v1.118h-7.034V2.192h6.873v1.106h-5.74v3.196h5.473v1.08h-5.472v3.249h5.9zm9.565-1.558c-.016 2.619-2.997 2.823-3.91 2.823-1.42 0-3.223-.563-4.022-2.142l-.096-.192 1.023-.51.096.19c.524 1.034 1.905 1.574 2.999 1.574.83 0 2.761-.171 2.761-1.757.01-1.147-1.139-1.453-2.896-1.789-1.701-.33-3.63-.708-3.63-2.606-.014-.688.21-1.277.667-1.74.65-.662 1.806-1.056 3.098-1.056 1.479 0 2.658.285 3.593 1.678l.126.188-.961.568-.11-.177c-.626-1.002-1.644-1.153-2.652-1.166-.265 0-2.613.048-2.613 1.679 0 .976 1.063 1.247 2.683 1.547l.1.02c1.756.337 3.744.717 3.744 2.868zm3.551 2.676h-1.134V2.192h1.134v9.749zm11.184-5.301v3.79l-.061.063c-1.043 1.041-2.28 1.568-3.675 1.568-3.476 0-5.031-2.496-5.031-4.968-.006-1.466.47-2.722 1.377-3.633.916-.917 2.179-1.4 3.654-1.4 1.343 0 2.61.517 3.565 1.46l.147.143-.7.768-.16-.154c-.725-.715-1.793-1.14-2.852-1.14-1.143 0-2.115.37-2.811 1.07-.716.718-1.106 1.739-1.098 2.872 0 1.789 1.022 3.876 3.909 3.876.987 0 1.916-.34 2.629-.96V7.693h-3.256V6.64h4.363zM130 2.192v9.749h-.595l-5.983-7.311v7.31h-1.148V2.193h.622l5.97 7.325V2.192H130zm-93.057 19.33l.001.124c0 1.338-.487 2.6-1.347 3.478-.888.905-2.135 1.383-3.606 1.383h-3.378V16.76h3.378c3.344 0 4.896 2.392 4.952 4.764zM31.99 25.39c1.124 0 2.078-.365 2.753-1.053.688-.702 1.072-1.724 1.05-2.805-.038-1.826-1.229-3.667-3.803-3.667h-2.228v7.525h2.228zm8.465 1.118h-1.134v-9.749h1.134v9.749zm10.407-2.676c-.017 2.62-2.998 2.823-3.911 2.823-1.42 0-3.222-.563-4.022-2.143l-.096-.19 1.023-.51.096.19c.524 1.032 1.905 1.573 2.999 1.573.83 0 2.761-.171 2.761-1.757.011-1.147-1.138-1.453-2.896-1.789-1.701-.33-3.63-.708-3.63-2.606-.013-.688.212-1.277.667-1.74.65-.662 1.808-1.056 3.098-1.056 1.48 0 2.658.285 3.593 1.678l.126.188-.96.568-.112-.177c-.625-1.002-1.643-1.153-2.65-1.166-.264 0-2.612.048-2.612 1.679 0 .976 1.061 1.247 2.681 1.548l.1.02c1.756.336 3.745.716 3.745 2.867zm8.82-7.059v1.065h-3.376v8.67h-1.148v-8.67h-3.376v-1.065h7.9zm6.587 6.143l3.318 3.592H68.06l-3.23-3.529h-2.24v3.529H61.44v-9.749h4.324c2.236 0 3.268 1.615 3.282 3.115.007.853-.287 1.625-.832 2.173-.487.49-1.154.786-1.945.869zm-3.681-5.064v4.021h3.096c1.757 0 2.138-1.094 2.148-2.013a2.009 2.009 0 0 0-.559-1.437c-.37-.374-.892-.57-1.509-.57H62.59zm10.55 8.656h-1.134v-9.749h1.134v9.749zm10.397-2.253l.79.744-.156.154a4.99 4.99 0 0 1-3.554 1.462c-3.448 0-5.005-2.475-5.017-4.928-.016-1.427.48-2.722 1.395-3.644.9-.91 2.153-1.39 3.622-1.39 1.348 0 2.61.519 3.554 1.461l.162.162-.816.706-.142-.14a3.866 3.866 0 0 0-2.758-1.124c-1.153 0-2.126.365-2.814 1.056-.705.707-1.09 1.73-1.082 2.884.022 1.781 1.056 3.864 3.896 3.864a3.995 3.995 0 0 0 2.774-1.124l.146-.143zm10.44-7.482v1.065h-3.375v8.67h-1.148v-8.67h-3.377v-1.065h7.9z" fill-rule="evenodd"/></symbol><symbol id="icon-pause" viewBox="0 0 357 357"><path d="M25.5 357h102V0h-102v357zm204-357v357h102V0h-102z"/></symbol><symbol id="icon-play" viewBox="0 0 357 357"><path d="M38.25 0v357l280.5-178.5"/></symbol><symbol id="icon-snapchat" viewBox="0 0 19 18"><title>Shape</title><path d="M18.571 13.495c-2.394-.4-3.485-2.858-3.601-3.137-.134-.278-.164-.479-.101-.627.125-.302.658-.473.999-.582.096-.032.186-.06.257-.09.69-.276 1.036-.63 1.029-1.05-.007-.334-.265-.64-.647-.778a1.154 1.154 0 0 0-.441-.086.978.978 0 0 0-.412.086c-.292.138-.552.213-.748.221a.708.708 0 0 1-.202-.034l.02-.324.004-.056c.081-1.31.182-2.942-.248-3.92C13.208.226 10.51 0 9.712 0l-.371.004c-.796 0-3.49.224-4.76 3.116-.431.98-.329 2.61-.247 3.921.008.129.016.255.022.377a.73.73 0 0 1-.24.036c-.228 0-.502-.075-.813-.223-.45-.214-1.273.072-1.384.664-.06.321.067.783 1.016 1.164.074.03.167.06.28.097.32.102.852.273.978.575.062.148.032.35-.1.621-.046.111-1.174 2.717-3.664 3.133a.517.517 0 0 0-.428.54c.004.074.02.148.052.222.21.497 1.006.842 2.506 1.084.033.086.072.264.093.366.032.147.065.299.11.456.046.16.182.426.574.426.132 0 .286-.03.453-.063.24-.048.568-.113.975-.113.226 0 .46.02.699.06.448.076.842.358 1.298.686.673.482 1.284.851 2.506.851l.096-.003c.045.002.09.003.137.003 1.07 0 2.013-.287 2.801-.852.436-.313.848-.609 1.297-.685.238-.04.473-.06.7-.06.39 0 .7.05.978.106.188.037.335.055.47.055a.546.546 0 0 0 .552-.419 6.78 6.78 0 0 0 .11-.452 3.32 3.32 0 0 1 .093-.364c1.48-.239 2.234-.57 2.443-1.066a.663.663 0 0 0 .055-.227.518.518 0 0 0-.428-.541z" fill-rule="nonzero" fill="#FFF"/></symbol><symbol id="icon-twitter" viewBox="0 0 18 15"><title>003-twitter-logo-silhouette</title><path d="M18.08 1.705a7.56 7.56 0 0 1-2.13.57A3.647 3.647 0 0 0 17.58.276a7.599 7.599 0 0 1-2.356.877A3.745 3.745 0 0 0 12.517.013c-2.048 0-3.71 1.618-3.71 3.612 0 .283.034.559.097.823A10.625 10.625 0 0 1 1.26.673a3.515 3.515 0 0 0-.502 1.816c0 1.253.655 2.36 1.65 3.007a3.784 3.784 0 0 1-1.68-.454v.045c0 1.75 1.279 3.21 2.974 3.543a3.85 3.85 0 0 1-.977.127c-.24 0-.471-.023-.698-.067.472 1.436 1.841 2.48 3.464 2.509a7.568 7.568 0 0 1-4.606 1.544c-.3 0-.595-.018-.885-.05a10.687 10.687 0 0 0 5.685 1.626c6.823 0 10.552-5.505 10.552-10.28l-.012-.467a7.304 7.304 0 0 0 1.855-1.867z" fill-rule="nonzero"/></symbol><symbol id="icon-website" viewBox="0 0 18 18"><title>Shape</title><path d="M17.978 8.4A8.998 8.998 0 0 0 9.6.02V0H8.4v.02A8.999 8.999 0 0 0 .02 8.4H0v1.2h.02a8.998 8.998 0 0 0 8.38 8.378V18h1.2v-.022A8.996 8.996 0 0 0 17.978 9.6H18V8.4h-.022zM5.634 1.962c-.58.77-1.06 1.736-1.411 2.838H2.425a7.841 7.841 0 0 1 3.209-2.838zM1.798 6h2.11c-.162.758-.264 1.564-.296 2.4h-2.39A7.732 7.732 0 0 1 1.799 6zm-.575 3.6h2.389c.032.836.134 1.642.295 2.4h-2.11a7.732 7.732 0 0 1-.574-2.4zm1.202 3.6h1.797c.35 1.102.831 2.068 1.412 2.838A7.833 7.833 0 0 1 2.425 13.2zM8.4 16.723c-1.234-.33-2.296-1.655-2.94-3.523H8.4v3.523zM8.4 12H5.123a13.412 13.412 0 0 1-.311-2.4H8.4V12zm0-3.6H4.812c.035-.845.142-1.652.31-2.4H8.4v2.4zm0-3.6H5.46c.644-1.868 1.706-3.193 2.94-3.522V4.8zm7.175 0H13.78c-.352-1.102-.832-2.068-1.414-2.838A7.849 7.849 0 0 1 15.575 4.8zM9.6 1.278c1.232.329 2.296 1.654 2.94 3.522H9.6V1.278zM9.6 6h3.276c.17.748.275 1.555.312 2.4H9.6V6zm0 3.6h3.588a13.302 13.302 0 0 1-.312 2.4H9.6V9.6zm0 7.123V13.2h2.94c-.644 1.868-1.708 3.193-2.94 3.523zm2.766-.685c.58-.772 1.062-1.736 1.414-2.838h1.795a7.84 7.84 0 0 1-3.209 2.838zM16.202 12h-2.11c.162-.758.264-1.564.296-2.4h2.388a7.698 7.698 0 0 1-.574 2.4zm-1.814-3.6a14.251 14.251 0 0 0-.295-2.4h2.11c.311.748.51 1.555.574 2.4h-2.389z" fill-rule="nonzero" fill="#FFF"/></symbol><symbol id="icon-youtube" viewBox="0 0 20 15"><title>Shape</title><path d="M19.654 2.413C19.41 1.268 18.54.424 17.492.298c-2.48-.298-4.99-.3-7.489-.298C7.504 0 4.993 0 2.513.298 1.467.424.597 1.268.353 2.413.002 4.043 0 5.822 0 7.5s0 3.457.348 5.087c.245 1.144 1.115 1.989 2.162 2.115 2.48.298 4.99.3 7.49.298 2.499.001 5.009 0 7.488-.298 1.047-.126 1.917-.97 2.162-2.115C20 10.957 20 9.178 20 7.5s.003-3.457-.346-5.087zM7.273 11.25v-7.5l6.363 3.762-6.363 3.738z" fill-rule="nonzero" fill="#FFF"/></symbol></svg>